<svg width="200" height="47" viewBox="0 0 200 47" fill="none" xmlns="http://www.w3.org/2000/svg">
<path d="M3.12451 8.62744V18.0284C3.12451 19.5706 3.12451 21.3028 0 21.3028V23.8427V23.877V26.3533C3.12451 26.3533 3.12451 28.0845 3.12451 29.6276V39.0276C3.12451 46.3234 7.02843 46.8531 13.6667 46.8531V41.1789C10.5422 41.1789 9.37157 40.7079 9.37157 38.8876V29.5797C9.37157 27.4304 9.51569 25.1852 7.68333 23.827C9.51569 22.4709 9.37157 20.2257 9.37157 18.0744V8.76844C9.37157 6.95013 10.5431 6.47719 13.6667 6.47719V0.801942C7.02843 0.800964 3.12451 1.33069 3.12451 8.62744ZM20.6912 8.32292C18.9843 9.79951 18.1314 11.9204 18.1314 14.6836V17.1658H14.5657V22.3524H18.1314V41.1485H25.8794V22.3524H30.6794V17.1658H25.8794V15.3954C25.8794 14.4946 26.1382 13.8004 26.6559 13.3128C27.1735 12.8251 27.9137 12.5823 28.8735 12.5823C29.3451 12.5823 31.7539 12.5901 31.7539 12.5901V6.57119C31.7539 6.57119 27.4529 6.52321 26.8382 6.52321C24.9676 6.52321 22.398 6.84438 20.6912 8.32292ZM35.1618 12.5686H42.9108V6.57119H35.1618V12.5686ZM35.1618 41.1495H42.9108V17.1658H35.1618V41.1495ZM62.0186 16.7222C60.5559 16.7222 59.2294 17.059 58.0412 17.7308C56.8529 18.4025 55.8549 19.3385 55.0471 20.5341L54.75 17.1658H47.5039V41.1485H55.2069V23.9054C55.6029 23.4618 56.0794 23.1123 56.6353 22.8635C57.1912 22.6148 57.8274 22.4866 58.5441 22.4866C59.6873 22.4866 60.552 22.7715 61.1382 23.3394C61.7245 23.9093 62.0186 24.8787 62.0186 26.2544V41.1505H69.7441V26.2769C69.7441 22.9517 69.0618 20.5282 67.699 19.0056C66.3353 17.483 64.4412 16.7222 62.0186 16.7222ZM93.1088 29.3241C91.6539 28.1794 89.4167 27.3168 86.4 26.741C84.4804 26.3885 83.2029 25.9871 82.5716 25.5435C81.9392 25.1019 81.6226 24.5604 81.6226 23.9259C81.6226 23.2601 81.8971 22.7167 82.4451 22.2868C82.9931 21.8579 83.6716 21.6425 84.4794 21.6425C85.5765 21.6425 86.3725 21.8873 86.8676 22.3749C87.3627 22.8626 87.6108 23.5793 87.6108 24.5242H95.1078L95.1539 24.392C95.2461 22.1282 94.3167 20.2883 92.3657 18.8617C90.4147 17.435 87.7931 16.7212 84.502 16.7212C81.3774 16.7212 78.902 17.4576 77.0725 18.9283C75.2441 20.399 74.3304 22.1889 74.3304 24.301C74.3304 26.2955 75.0618 27.871 76.5245 29.0225C77.9873 30.176 80.1588 31.0249 83.0392 31.5723C84.8676 31.9414 86.1284 32.3585 86.8216 32.8236C87.5157 33.2897 87.8618 33.8194 87.8618 34.4069C87.8618 35.1315 87.5951 35.6916 87.0618 36.0803C86.5284 36.472 85.7441 36.6708 84.7078 36.6708C83.4588 36.6708 82.4941 36.4172 81.8167 35.9158C81.1382 35.4145 80.7843 34.594 80.7539 33.4562H73.7598L73.7147 33.5884C73.6235 35.6289 74.5559 37.4766 76.5147 39.1304C78.4725 40.7862 81.1353 41.6126 84.5029 41.6126C87.749 41.6126 90.3578 40.9145 92.3314 39.5172C94.3059 38.1209 95.2922 36.3457 95.2922 34.1866C95.2922 32.0902 94.5637 30.4687 93.1088 29.3241ZM120.688 31.0641H120.551L116.483 17.1677H111.614L107.591 31.1767H107.454L104.734 17.1677H97.6029L103.431 41.1505H109.947L113.991 28.4282H114.128L118.152 41.1505H124.689L130.495 17.1677H123.364L120.688 31.0641ZM143.612 16.7221C139.939 16.7075 137.115 17.8571 135.142 20.1699C133.167 22.4817 132.18 25.4632 132.18 29.1126V29.9557C132.18 33.2946 133.267 36.0735 135.436 38.2903C137.608 40.5081 140.516 41.6156 144.158 41.6156C146.124 41.6156 147.964 41.361 149.678 40.8508C151.392 40.3417 152.791 39.7033 153.872 38.9346L152.044 34.3678C150.703 34.9161 149.594 35.299 148.718 35.5212C147.84 35.7445 146.671 35.8551 145.208 35.8551C143.76 35.8551 142.603 35.4595 141.734 34.6694C140.865 33.8762 140.348 32.8687 140.179 31.6428L140.226 31.5086H154.351V27.5831C154.351 24.2442 153.398 21.5994 151.494 19.648C149.592 17.6975 146.963 16.7221 143.612 16.7221ZM146.812 26.8311H140.16L140.091 26.7215C140.214 25.4348 140.553 24.4077 141.11 23.639C141.665 22.8724 142.5 22.4875 143.613 22.4875C144.71 22.4875 145.516 22.8126 146.036 23.4628C146.554 24.113 146.814 25.0442 146.814 26.2554L146.812 26.8311ZM169.537 16.7221C165.865 16.7075 163.042 17.8571 161.068 20.1699C159.095 22.4817 158.107 25.4632 158.107 29.1126V29.9557C158.107 33.2946 159.193 36.0735 161.365 38.2903C163.537 40.5081 166.442 41.6156 170.084 41.6156C172.051 41.6156 173.891 41.361 175.607 40.8508C177.321 40.3417 178.719 39.7033 179.8 38.9346L177.972 34.3678C176.63 34.9161 175.523 35.299 174.645 35.5212C173.767 35.7445 172.599 35.8551 171.135 35.8551C169.688 35.8551 168.531 35.4595 167.662 34.6694C166.792 33.8762 166.275 32.8687 166.107 31.6428L166.153 31.5086H180.278V27.5831C180.278 24.2442 179.325 21.5994 177.422 19.648C175.517 17.6975 172.89 16.7221 169.537 16.7221ZM172.736 26.8311H166.086L166.018 26.7215C166.14 25.4348 166.479 24.4077 167.034 23.639C167.589 22.8724 168.425 22.4875 169.537 22.4875C170.634 22.4875 171.442 22.8126 171.962 23.4628C172.481 24.113 172.739 25.0442 172.739 26.2554V26.8321H172.736V26.8311ZM196.151 34.9288C195.191 34.9288 194.451 34.686 193.933 34.1984C193.416 33.7108 193.156 33.0146 193.156 32.1137V22.3945H197.175V17.2059H193.156V6.53301H185.408V17.2059H181.841V22.3945H185.408V32.8256C185.408 35.5888 186.261 37.7097 187.967 39.1882C189.673 40.6677 192.241 40.9879 194.115 40.9879C194.73 40.9879 199.031 40.9399 199.031 40.9399V34.921C199.031 34.921 196.625 34.9288 196.151 34.9288Z" fill="#063255"/>
<rect x="198" y="39" width="1" height="1" fill="#063255"/>
</svg>
