<svg width="144" height="141" viewBox="0 0 144 141" fill="none" xmlns="http://www.w3.org/2000/svg">
<g clip-path="url(#clip0)">
<path d="M62.6971 127.204L60.1741 141L55.065 140.068C54.0558 139.881 53.2989 139.57 52.6682 139.136C52.1005 138.701 51.659 138.203 51.4698 137.582C51.2175 136.961 51.2175 136.339 51.3436 135.656C51.4698 135.096 51.659 134.599 51.9113 134.288C52.1636 133.978 52.542 133.667 52.9205 133.481C53.2989 133.294 53.7405 133.232 54.182 133.17V133.046C53.7405 132.921 53.2989 132.735 52.9205 132.362C52.542 131.989 52.2267 131.554 52.0374 130.995C51.8482 130.436 51.7851 129.814 51.9113 129.131C52.0374 128.447 52.3528 127.826 52.7313 127.329C53.1728 126.831 53.7405 126.459 54.4973 126.272C55.2542 126.086 56.2004 126.086 57.2726 126.272L62.6971 127.204ZM59.1649 134.661L56.3265 134.164C55.8219 134.102 55.3804 134.102 55.0019 134.226C54.6235 134.351 54.245 134.537 53.9297 134.848C53.6143 135.158 53.4881 135.469 53.362 135.966C53.2358 136.526 53.362 137.023 53.7404 137.52C54.1189 138.017 54.6866 138.266 55.5065 138.452L58.408 138.949L59.1649 134.661ZM60.2372 128.571L57.2096 128.012C56.2004 127.826 55.4435 127.888 54.9389 128.199C54.4343 128.509 54.1189 128.944 53.9927 129.504C53.9297 129.939 53.9297 130.374 54.1189 130.746C54.2451 131.119 54.5604 131.492 54.9389 131.803C55.3173 132.113 55.7588 132.3 56.3265 132.362L59.4803 132.921L60.2372 128.571Z" fill="#F58A07"/>
<path d="M45.6033 122.482C46.5495 122.855 47.3064 123.414 47.811 124.16C48.3156 124.843 48.6309 125.651 48.694 126.583C48.7571 127.515 48.5679 128.447 48.1263 129.442C47.6848 130.436 47.1171 131.244 46.4233 131.803C45.7295 132.424 44.9095 132.797 44.0895 132.922C43.2065 133.046 42.3234 132.922 41.4404 132.549C40.8727 132.3 40.3681 131.989 39.9266 131.617C39.4851 131.244 39.1697 130.747 38.9174 130.187C38.6651 129.628 38.5389 129.007 38.602 128.261C38.602 127.515 38.8543 126.77 39.2328 125.9L39.5481 125.216L47.3694 128.447L46.7387 129.877L40.8096 127.391C40.6204 127.888 40.4943 128.385 40.5573 128.82C40.6204 129.317 40.7466 129.69 40.9989 130.063C41.2512 130.436 41.6296 130.747 42.1342 130.933C42.7019 131.182 43.2065 131.244 43.7111 131.119C44.2157 131.057 44.6572 130.809 45.0357 130.498C45.4141 130.187 45.7295 129.752 45.9187 129.317L46.4233 128.199C46.6756 127.577 46.8018 126.956 46.8018 126.397C46.7387 125.837 46.6125 125.34 46.2972 124.967C45.9818 124.595 45.5403 124.222 44.9726 123.973C44.5941 123.849 44.2788 123.725 43.9003 123.725C43.5849 123.725 43.2065 123.725 42.9542 123.849C42.7019 123.973 42.3865 124.16 42.1342 124.408L40.4312 123.352C40.8096 122.917 41.2512 122.544 41.8188 122.295C42.3865 122.047 42.9542 121.922 43.5849 121.985C44.2157 122.047 44.9095 122.171 45.6033 122.482Z" fill="#F58A07"/>
<path d="M27.6266 121.487L29.3927 122.295C29.3297 122.544 29.2666 122.792 29.3297 123.041C29.3297 123.289 29.4558 123.6 29.582 123.849C29.7712 124.097 30.0235 124.408 30.3389 124.594C30.8435 124.905 31.285 125.092 31.7896 125.092C32.2311 125.092 32.6096 124.905 32.8619 124.594C33.0511 124.284 33.1142 123.973 33.0511 123.662C32.988 123.352 32.7357 122.979 32.2942 122.544L31.0958 121.301C30.4019 120.555 30.0235 119.872 29.8973 119.25C29.7712 118.629 29.8973 117.945 30.3389 117.324C30.7173 116.827 31.1588 116.454 31.7896 116.267C32.3573 116.081 32.988 116.019 33.7449 116.205C34.4387 116.33 35.1326 116.64 35.8895 117.137C36.8987 117.821 37.5294 118.567 37.8448 119.375C38.1602 120.182 38.1602 121.052 37.7186 121.922L35.8895 121.052C36.0787 120.555 36.0787 120.12 35.9525 119.685C35.7633 119.25 35.4479 118.877 34.9433 118.505C34.3757 118.132 33.8711 117.945 33.3665 117.945C32.8619 117.945 32.4834 118.132 32.2942 118.442C32.105 118.691 32.0419 119.002 32.105 119.312C32.168 119.623 32.4203 119.996 32.7357 120.369L33.9972 121.674C34.691 122.42 35.0695 123.103 35.1956 123.787C35.3218 124.47 35.1326 125.092 34.691 125.713C34.3126 126.21 33.8711 126.583 33.3034 126.769C32.7357 126.956 32.105 126.956 31.4742 126.832C30.8435 126.707 30.1496 126.397 29.5189 125.962C28.5728 125.34 27.942 124.594 27.6897 123.849C27.3113 123.103 27.3113 122.295 27.6266 121.487Z" fill="#F58A07"/>
<path d="M20.0577 121.673L18.5439 120.244L25.5453 113.098C25.7976 112.787 25.9868 112.539 26.0499 112.352C26.1129 112.104 26.1129 111.917 25.9868 111.731C25.9237 111.544 25.7976 111.358 25.6083 111.234C25.4822 111.109 25.356 111.047 25.293 110.985C25.2299 110.923 25.1037 110.861 25.0407 110.799L25.9868 109.307C26.1129 109.369 26.2391 109.431 26.4283 109.556C26.6175 109.68 26.8698 109.866 27.0591 110.053C27.4375 110.426 27.7529 110.861 27.9421 111.296C28.1313 111.731 28.1944 112.228 28.1313 112.725C28.0682 113.222 27.7529 113.719 27.3114 114.154L20.0577 121.673ZM18.7332 116.951L19.8685 115.77L24.0315 119.747L22.8961 120.928L18.7332 116.951Z" fill="#F58A07"/>
<path d="M19.0487 99.6129C19.3641 100.172 19.5533 100.794 19.6164 101.353C19.6794 101.974 19.5533 102.471 19.301 102.969C19.0487 103.466 18.6072 103.901 17.9764 104.274C17.4718 104.584 16.9672 104.708 16.5257 104.708C16.0842 104.708 15.6426 104.584 15.2642 104.336C14.8857 104.087 14.5073 103.839 14.1919 103.466C13.8765 103.093 13.4981 102.72 13.2458 102.347C12.8673 101.85 12.552 101.415 12.2997 101.104C12.0474 100.794 11.8581 100.607 11.6689 100.483C11.4797 100.359 11.2905 100.421 11.0382 100.545H10.9751C10.4705 100.856 10.1551 101.229 10.029 101.664C9.90282 102.099 10.029 102.658 10.3443 103.217C10.7228 103.839 11.1012 104.211 11.5428 104.398C11.9843 104.584 12.4258 104.646 12.8673 104.584L13.435 106.448C12.7412 106.573 12.1104 106.511 11.5428 106.324C10.9751 106.138 10.4705 105.827 10.029 105.454C9.58744 105.019 9.20899 104.584 8.89362 104.025C8.70439 103.652 8.51517 103.279 8.32594 102.782C8.19979 102.347 8.13672 101.85 8.13672 101.353C8.13672 100.856 8.32594 100.359 8.57824 99.9236C8.83054 99.4886 9.33514 99.0536 10.029 98.6186L16.1472 95.1387L17.1564 96.8786L15.8949 97.6243L15.958 97.6865C16.2734 97.6865 16.5888 97.6865 16.9672 97.8108C17.3457 97.935 17.661 98.1215 18.0395 98.37C18.4179 98.7429 18.7333 99.1157 19.0487 99.6129ZM17.3457 100.048C17.0303 99.5507 16.7149 99.1779 16.3365 98.9293C15.958 98.6807 15.5165 98.5565 15.075 98.5565C14.6334 98.5565 14.255 98.6808 13.8765 98.8672L12.6781 99.5507C12.8043 99.5507 12.9304 99.675 13.0566 99.7993C13.1827 99.9236 13.3719 100.11 13.5612 100.359C13.7504 100.545 13.8765 100.794 14.0658 100.98C14.1919 101.166 14.3811 101.353 14.4442 101.477C14.6965 101.788 14.9488 102.099 15.2011 102.285C15.4534 102.534 15.7688 102.658 16.0211 102.72C16.3365 102.782 16.6518 102.72 16.9672 102.534C17.4087 102.285 17.661 101.912 17.661 101.477C17.7872 101.042 17.661 100.545 17.3457 100.048Z" fill="#F58A07"/>
<path d="M17.4723 86.7497C17.7246 87.5576 17.8507 88.2411 17.7876 88.9247C17.7876 89.5461 17.6615 90.1054 17.4092 90.6025C17.1569 91.0997 16.9046 91.4725 16.5261 91.7832L15.2646 90.354C15.3908 90.1675 15.58 89.9811 15.7062 89.6704C15.8323 89.4218 15.9585 89.049 16.0215 88.6761C16.0846 88.3033 16.0215 87.8061 15.8323 87.309C15.58 86.5633 15.2016 86.004 14.697 85.6312C14.1924 85.2583 13.4985 85.1962 12.7416 85.4448L10.7232 86.0662L10.7863 86.1905C11.0386 86.2526 11.354 86.3147 11.6694 86.439C11.9847 86.5633 12.3001 86.8119 12.6786 87.1226C13.057 87.4333 13.2462 87.9304 13.4355 88.5519C13.6878 89.3597 13.7508 90.1054 13.5616 90.8511C13.3724 91.5968 12.9939 92.2804 12.3632 92.9018C11.7324 93.5232 10.9125 93.9582 9.84019 94.331C8.76792 94.6418 7.75872 94.766 6.87567 94.6418C5.99262 94.5175 5.23572 94.2068 4.60497 93.7096C3.97422 93.2125 3.5327 92.5289 3.2804 91.7211C3.09117 91.0997 3.0281 90.5404 3.09117 90.1054C3.15425 89.6704 3.34347 89.2976 3.5327 88.9868C3.72192 88.6761 3.91115 88.4276 4.10037 88.2411L4.0373 88.1169L2.39735 88.614L1.7666 86.6876L12.174 83.4562C13.057 83.2077 13.8139 83.1455 14.5077 83.3941C15.2016 83.6426 15.7692 84.0155 16.2738 84.6369C16.7784 85.2583 17.22 85.8798 17.4723 86.7497ZM11.6694 88.5519C11.4801 87.9926 11.2278 87.5576 10.7863 87.2469C10.3448 86.9362 9.90326 86.7497 9.33559 86.7497C8.76792 86.6876 8.13717 86.8119 7.44334 86.9983C6.74952 87.1847 6.18184 87.4954 5.74032 87.8683C5.2988 88.2411 4.98342 88.6761 4.7942 89.1111C4.60497 89.6083 4.60497 90.1054 4.7942 90.6647C4.98342 91.2239 5.2988 91.7211 5.74032 91.9697C6.18184 92.2804 6.68644 92.4046 7.25412 92.4668C7.82179 92.5289 8.45254 92.4046 9.08329 92.2182C9.77711 92.0318 10.2817 91.7211 10.7232 91.3482C11.1648 90.9754 11.4801 90.5404 11.6063 90.1054C11.8586 89.6704 11.8586 89.1733 11.6694 88.5519Z" fill="#F58A07"/>
<path d="M11.1638 75.6266C11.29 76.683 11.1008 77.553 10.7223 78.3609C10.3439 79.1687 9.77619 79.7901 8.95622 80.2251C8.19932 80.7223 7.2532 80.9708 6.11785 81.0951C5.04557 81.2194 4.03638 81.0951 3.2164 80.7223C2.33335 80.4115 1.63953 79.9144 1.13493 79.2309C0.630331 78.5473 0.314957 77.7395 0.188807 76.7452C0.125732 76.1238 0.188807 75.5645 0.314957 75.0052C0.441107 74.4459 0.756481 73.8867 1.13493 73.4517C1.51338 72.9545 2.01798 72.5817 2.7118 72.271C3.34255 71.9603 4.16253 71.7739 5.10865 71.6496L5.86555 71.5874L6.62245 79.9144L5.04557 80.0387L4.4779 73.7002C3.91023 73.7624 3.4687 73.8867 3.09025 74.1352C2.7118 74.3838 2.39643 74.7567 2.2072 75.1295C2.01798 75.5024 1.89183 75.9995 1.9549 76.5588C2.01798 77.118 2.2072 77.6152 2.52258 77.988C2.83795 78.3609 3.2164 78.6716 3.721 78.858C4.2256 79.0444 4.7302 79.1066 5.2348 79.0444L6.43322 78.9202C7.12705 78.858 7.7578 78.6716 8.19932 78.3609C8.64084 78.0502 9.01929 77.6773 9.27159 77.2423C9.46082 76.7452 9.58697 76.2481 9.52389 75.6266C9.46082 75.2538 9.39774 74.8809 9.27159 74.5702C9.14544 74.2595 8.95622 74.011 8.70392 73.7624C8.45162 73.576 8.13624 73.3895 7.82087 73.3274L8.01009 71.3389C8.57777 71.4632 9.14544 71.6496 9.58697 72.0224C10.0285 72.3953 10.4069 72.8303 10.7223 73.4517C11.0377 74.0731 11.1008 74.8809 11.1638 75.6266Z" fill="#F58A07"/>
<path d="M4.54139 65.4965L10.8489 66.2422L10.5966 68.2929L0 67.05L0.2523 65.1236L1.95532 65.31V65.1858C1.45072 64.8751 1.0092 64.4401 0.756899 63.8808C0.504599 63.3215 0.378449 62.6379 0.504599 61.8922C0.567674 61.2087 0.819974 60.5873 1.19842 60.0901C1.57687 59.593 2.08147 59.2202 2.71222 59.0337C3.34297 58.7852 4.09987 58.723 4.98292 58.8473L11.7319 59.6551L11.4796 61.7058L4.91984 60.8358C4.16294 60.7737 3.53219 60.898 3.0276 61.2087C2.523 61.5815 2.2707 62.0787 2.20762 62.7622C2.14455 63.2594 2.20762 63.6322 2.39685 64.0672C2.58607 64.4401 2.83837 64.7508 3.21682 65.0615C3.53219 65.2479 3.97372 65.4343 4.54139 65.4965Z" fill="#F58A07"/>
<path d="M14.0663 52.1364C13.7509 53.0686 13.2463 53.8764 12.5525 54.3735C11.8587 54.9328 11.0387 55.2435 10.1557 55.3678C9.27261 55.4921 8.26341 55.3678 7.25421 54.9949C6.24502 54.6221 5.36197 54.125 4.73122 53.5035C4.10047 52.8821 3.65894 52.1364 3.46972 51.2664C3.2805 50.3964 3.34357 49.5265 3.65894 48.5943C3.91124 47.8486 4.28969 47.2272 4.79429 46.7301C5.29889 46.2329 5.86657 45.8601 6.49732 45.6737C7.12806 45.4872 7.82189 45.4872 8.51571 45.6115L7.88496 47.4758C7.38036 47.4136 6.87576 47.5379 6.43424 47.7865C5.99272 48.0351 5.61427 48.47 5.42504 49.0915C5.23582 49.6507 5.23582 50.1479 5.36197 50.645C5.48812 51.1422 5.80349 51.5771 6.24502 52.0121C6.68654 52.4471 7.25421 52.7578 8.01111 53.0064C8.76801 53.255 9.39876 53.3793 10.0295 53.3171C10.6603 53.255 11.1649 53.1307 11.6064 52.82C12.0479 52.5093 12.3633 52.0743 12.5525 51.515C12.6787 51.1422 12.7417 50.7693 12.6787 50.4586C12.6156 50.0857 12.5525 49.775 12.3633 49.5265C12.1741 49.2779 11.9218 48.9672 11.6064 48.7808L12.2371 46.9165C12.8679 47.2272 13.3725 47.6001 13.7509 48.1593C14.1294 48.6565 14.3817 49.2779 14.4448 49.9615C14.4448 50.645 14.3817 51.3907 14.0663 52.1364Z" fill="#F58A07"/>
<path d="M20.6888 46.3579C20.4996 46.6065 20.3734 46.855 20.1842 47.0415C19.995 47.2279 19.8688 47.3522 19.7427 47.4765L18.5443 46.1715C18.7966 45.9229 19.0489 45.6122 19.175 45.3636C19.3012 45.1151 19.3642 44.8044 19.3012 44.5558C19.2381 44.2451 19.0489 43.9344 18.7335 43.4994L18.2289 42.9401L6.93848 40.8273L8.07383 38.963L16.5889 40.8273L16.652 40.703L10.9122 34.2402L12.0475 32.376L20.1842 42.1323C20.5627 42.5673 20.815 43.0644 21.0042 43.4994C21.1934 43.9344 21.2565 44.4315 21.1934 44.8665C21.1303 45.3015 20.9411 45.8608 20.6888 46.3579Z" fill="#F58A07"/>
<path d="M26.8068 31.133L25.7976 29.9523L26.113 23.1167C26.113 22.371 26.1761 21.7496 26.113 21.2524C26.113 20.7553 26.0499 20.2581 25.9238 19.8853C25.7976 19.5124 25.6084 19.1396 25.3561 18.8289C25.0407 18.456 24.6623 18.2696 24.2838 18.1453C23.9054 18.021 23.4639 18.021 23.0854 18.1453C22.707 18.2696 22.2654 18.456 21.9501 18.7667C21.5716 19.0775 21.3193 19.4503 21.1301 19.8853C21.0039 20.2581 20.9409 20.6931 21.067 21.1281C21.1932 21.5631 21.3824 21.936 21.6978 22.3088L20.184 23.676C19.6163 23.0545 19.2378 22.371 19.1117 21.6253C18.9855 20.8796 19.0486 20.1339 19.364 19.4503C19.6794 18.7046 20.1209 18.0832 20.8147 17.5239C21.5085 16.9646 22.2024 16.5918 22.9593 16.4053C23.7162 16.2189 24.41 16.2189 25.1038 16.4675C25.7976 16.6539 26.3653 17.0268 26.8699 17.6482C27.2484 18.021 27.5007 18.456 27.6899 19.0153C27.8791 19.5124 28.0053 20.1339 28.0053 20.9417C28.0053 21.7496 28.0053 22.6817 27.9422 23.9245L27.753 27.7773L27.816 27.8395L32.6097 23.676L33.8081 25.0431L26.8068 31.133Z" fill="#F58A07"/>
<path d="M40.9992 21.1281C40.0531 21.6253 39.0439 21.8117 38.0977 21.6874C37.1516 21.5631 36.2055 21.1281 35.3224 20.3203C34.4394 19.5746 33.6194 18.5182 32.9256 17.1511C32.1687 15.7839 31.7272 14.6032 31.601 13.4225C31.4749 12.304 31.601 11.3097 31.9795 10.4397C32.421 9.56974 33.0517 8.88618 34.0609 8.38904C35.0071 7.89191 35.9532 7.70548 36.9624 7.82977C37.9716 7.95405 38.8546 8.38904 39.7377 9.13475C40.6207 9.88045 41.4407 10.9369 42.1345 12.2418C42.8914 13.609 43.333 14.8518 43.4591 15.9704C43.6483 17.0889 43.5222 18.1453 43.0807 18.9532C42.6391 19.8853 41.9453 20.5689 40.9992 21.1281ZM40.1161 19.5125C40.9361 19.0775 41.3776 18.3318 41.4407 17.2132C41.5038 16.1568 41.0623 14.8518 40.2423 13.2983C39.6746 12.304 39.1069 11.4961 38.4762 10.8747C37.8454 10.2533 37.2778 9.88045 36.647 9.75617C36.0163 9.63188 35.4486 9.69402 34.8809 10.0047C34.0609 10.4397 33.6194 11.1854 33.5563 12.304C33.4933 13.3604 33.9348 14.6654 34.7548 16.2189C35.3224 17.2753 35.8901 18.0832 36.5209 18.6425C37.1516 19.2639 37.7193 19.5746 38.35 19.761C38.9177 19.8853 39.5485 19.8232 40.1161 19.5125Z" fill="#F58A07"/>
<path d="M48.3155 17.3996L47.874 15.9082L51.1539 9.88046C51.5323 9.25904 51.7846 8.63763 51.9739 8.20263C52.1631 7.7055 52.3523 7.2705 52.4154 6.89765C52.4785 6.5248 52.4785 6.08981 52.3523 5.71695C52.2262 5.28196 52.0369 4.90911 51.7216 4.66054C51.4062 4.41197 51.0277 4.22555 50.6493 4.16341C50.2078 4.10126 49.7662 4.10127 49.3247 4.22555C48.8201 4.34983 48.4417 4.5984 48.1263 4.84697C47.8109 5.15768 47.6217 5.53053 47.4955 5.90338C47.3694 6.27623 47.4325 6.77337 47.5586 7.2705L45.6033 7.82978C45.351 7.02194 45.351 6.21409 45.6033 5.53053C45.7925 4.78483 46.234 4.16341 46.8017 3.66627C47.3694 3.16914 48.0632 2.79628 48.9463 2.54772C49.8293 2.29915 50.5862 2.29915 51.3431 2.42343C52.1 2.54772 52.7308 2.92057 53.2984 3.35556C53.803 3.8527 54.1815 4.41197 54.4338 5.15768C54.5599 5.65481 54.623 6.15195 54.5599 6.71123C54.4969 7.2705 54.3076 7.89192 53.9923 8.57548C53.6769 9.25904 53.2354 10.1912 52.6677 11.2476L50.7124 14.7897V14.914L56.8937 13.2361L57.3983 14.9761L48.3155 17.3996Z" fill="#F58A07"/>
<path d="M65.4721 14.4165C64.3998 14.4786 63.4537 14.2301 62.6337 13.6708C61.8137 13.1115 61.183 12.3658 60.7415 11.3094C60.2999 10.253 60.0476 8.94799 59.9215 7.45658C59.8584 5.96518 59.9846 4.6602 60.363 3.54164C60.7415 2.42309 61.3091 1.61525 62.066 0.993826C62.8229 0.372407 63.7691 0.0616976 64.8413 -0.00044434C65.9136 -0.0625862 66.8597 0.185981 67.6797 0.745259C68.4997 1.30454 69.1304 2.05024 69.572 3.10665C70.0135 4.16306 70.3288 5.46804 70.3919 6.95945C70.455 8.513 70.3288 9.81798 69.9504 10.8744C69.5719 11.9308 69.0043 12.8008 68.3105 13.4222C67.4905 14.0436 66.6074 14.3543 65.4721 14.4165ZM65.409 12.6144C66.3551 12.5522 67.112 12.0551 67.6166 11.123C68.1212 10.1908 68.3104 8.82371 68.2474 7.08373C68.1843 5.90304 67.9951 4.97091 67.7428 4.16306C67.4905 3.35522 67.049 2.79594 66.6074 2.36095C66.1028 1.9881 65.5982 1.80167 64.9675 1.80167C64.0214 1.86381 63.2645 2.36095 62.7599 3.29308C62.2553 4.22521 62.066 5.59233 62.1291 7.3323C62.1922 8.513 62.3814 9.50727 62.6337 10.253C62.886 10.9987 63.3275 11.6201 63.7691 12.0551C64.2106 12.4901 64.7783 12.6144 65.409 12.6144Z" fill="#F58A07"/>
<path d="M88.053 9.19674L87.6115 10.9367L81.4932 9.32103L81.9347 7.58105L88.053 9.19674Z" fill="#F58A07"/>
<path d="M94.865 20.4439L95.685 19.1389L102.434 17.5232C103.128 17.3368 103.759 17.1504 104.263 17.0261C104.768 16.9018 105.209 16.6532 105.525 16.4668C105.84 16.2804 106.155 15.9697 106.345 15.5968C106.597 15.224 106.723 14.789 106.723 14.4161C106.723 13.9811 106.597 13.6083 106.408 13.2976C106.155 12.9247 105.84 12.614 105.462 12.3654C105.02 12.1169 104.579 11.9304 104.137 11.9304C103.695 11.9304 103.317 11.9926 102.939 12.179C102.56 12.3654 102.245 12.6761 101.992 13.1111L100.289 12.0547C100.731 11.309 101.299 10.8119 101.992 10.5012C102.686 10.1905 103.38 10.0662 104.2 10.1283C104.957 10.1905 105.714 10.439 106.471 10.9362C107.228 11.4333 107.795 11.9926 108.174 12.614C108.552 13.2976 108.741 13.9811 108.741 14.6647C108.741 15.3482 108.552 16.0318 108.111 16.6532C107.858 17.0882 107.48 17.4611 107.038 17.7718C106.597 18.0825 106.029 18.3932 105.272 18.6418C104.515 18.8903 103.569 19.1389 102.371 19.4496L98.3972 20.4439L98.3341 20.506L103.759 23.8617L102.749 25.4152L94.865 20.4439Z" fill="#F58A07"/>
<path d="M108.615 30.9464C107.858 30.2007 107.416 29.3307 107.227 28.3985C107.101 27.4664 107.227 26.4721 107.732 25.4157C108.236 24.3593 108.993 23.3029 110.129 22.2465C111.201 21.1901 112.273 20.3822 113.345 19.9472C114.418 19.4501 115.427 19.3258 116.373 19.4501C117.319 19.5744 118.202 20.0715 118.959 20.8172C119.716 21.5629 120.158 22.4329 120.347 23.365C120.473 24.2972 120.347 25.2914 119.842 26.3479C119.338 27.4043 118.581 28.4607 117.508 29.5171C116.436 30.5735 115.301 31.3814 114.292 31.8163C113.219 32.3135 112.21 32.4378 111.264 32.3135C110.255 32.1892 109.372 31.6921 108.615 30.9464ZM109.939 29.6414C110.633 30.3249 111.453 30.5114 112.525 30.2628C113.598 30.0142 114.733 29.2064 115.995 28.0257C116.815 27.2178 117.445 26.41 117.887 25.6643C118.265 24.9186 118.454 24.235 118.454 23.6136C118.454 22.9922 118.202 22.4951 117.761 21.9979C117.067 21.3144 116.247 21.1279 115.175 21.3765C114.102 21.6251 112.967 22.4329 111.705 23.6136C110.885 24.4215 110.255 25.2293 109.813 25.975C109.435 26.7207 109.246 27.4043 109.246 28.0257C109.246 28.7092 109.498 29.2064 109.939 29.6414Z" fill="#F58A07"/>
<path d="M114.292 36.8491L115.617 36.0412L122.366 37.4705C123.122 37.5948 123.753 37.719 124.258 37.7812C124.762 37.8433 125.267 37.8433 125.645 37.7812C126.024 37.719 126.402 37.5948 126.781 37.3462C127.159 37.0976 127.475 36.7869 127.664 36.4141C127.853 36.0412 127.916 35.6684 127.853 35.2334C127.79 34.7984 127.664 34.4255 127.412 33.9905C127.159 33.5555 126.844 33.2448 126.465 33.0584C126.087 32.872 125.709 32.7477 125.267 32.8098C124.825 32.8098 124.384 32.9963 124.006 33.2448L122.933 31.5049C123.69 31.0699 124.384 30.8213 125.204 30.8213C126.024 30.8213 126.655 31.0077 127.348 31.3806C128.042 31.7534 128.61 32.3127 129.051 33.0584C129.556 33.8041 129.808 34.5498 129.871 35.2955C129.935 36.0412 129.808 36.7248 129.493 37.4083C129.178 38.0919 128.673 38.589 128.042 38.9619C127.601 39.2104 127.096 39.3969 126.592 39.5212C126.087 39.6454 125.393 39.6454 124.636 39.5212C123.879 39.459 122.87 39.2726 121.672 39.024L117.635 38.2162L117.572 38.2783L120.978 43.6225L119.401 44.5546L114.292 36.8491Z" fill="#F58A07"/>
<path d="M135.864 47.6621L122.555 52.6334L121.798 50.6449L133.088 46.4192V46.3571L129.808 43.9957L131.701 43.25L135.107 45.7357L135.864 47.6621Z" fill="#F58A07"/>
<path d="M144 63.9432L120.726 66.3046L120.536 64.5025L143.811 62.1411L144 63.9432Z" fill="#F58A07"/>
<path d="M139.08 80.2246L124.951 78.5468L125.203 76.4961L139.332 78.1739L139.08 80.2246Z" fill="#F58A07"/>
<path d="M123.059 86.2522C123.312 85.32 123.816 84.5122 124.447 83.9529C125.078 83.3936 125.898 83.0208 126.781 82.8344C127.664 82.6479 128.673 82.7101 129.745 83.0208C130.818 83.3315 131.701 83.7665 132.394 84.3879C133.088 85.0093 133.53 85.755 133.782 86.5629C134.034 87.3707 133.971 88.3029 133.719 89.235C133.467 90.1671 132.962 90.975 132.331 91.5342C131.701 92.0935 130.881 92.4664 129.998 92.6528C129.115 92.8392 128.105 92.7771 127.033 92.4664C125.961 92.1557 125.078 91.7207 124.447 91.0992C123.753 90.4778 123.312 89.7321 123.059 88.9243C122.807 88.1164 122.807 87.1843 123.059 86.2522ZM124.762 86.7493C124.573 87.3707 124.573 87.93 124.825 88.4271C125.078 88.9243 125.393 89.3593 125.898 89.67C126.402 90.0428 126.97 90.2914 127.601 90.4778C128.231 90.6642 128.862 90.7264 129.493 90.7264C130.124 90.6642 130.628 90.54 131.07 90.2292C131.511 89.9185 131.827 89.4835 132.016 88.8621C132.205 88.2407 132.205 87.6814 131.953 87.1843C131.764 86.6872 131.385 86.2522 130.881 85.8793C130.376 85.5065 129.808 85.2579 129.178 85.0715C128.547 84.885 127.916 84.8229 127.285 84.8229C126.655 84.885 126.15 85.0093 125.708 85.3822C125.267 85.6929 124.952 86.1279 124.762 86.7493Z" fill="#F58A07"/>
<path d="M125.33 98.4324L119.779 95.4496L120.789 93.6475L130.187 98.6188L129.241 100.359L127.727 99.551L127.664 99.6752C128.042 100.172 128.231 100.67 128.294 101.291C128.358 101.912 128.168 102.534 127.79 103.279C127.474 103.901 127.033 104.398 126.465 104.709C125.961 105.019 125.33 105.206 124.699 105.206C124.005 105.206 123.312 104.957 122.555 104.584L116.562 101.415L117.572 99.6131L123.312 102.658C124.005 103.031 124.636 103.155 125.204 102.969C125.771 102.844 126.213 102.472 126.591 101.85C126.844 101.415 126.907 101.042 126.907 100.607C126.907 100.172 126.781 99.7995 126.528 99.4267C126.213 99.0538 125.835 98.7431 125.33 98.4324Z" fill="#F58A07"/>
<path d="M111.832 107.008C112.4 106.386 113.093 105.951 113.85 105.703C114.607 105.516 115.427 105.516 116.31 105.765C117.193 106.013 118.076 106.511 118.896 107.256C119.716 108.002 120.41 108.81 120.725 109.618C121.104 110.425 121.23 111.233 121.104 112.041C120.978 112.849 120.662 113.533 120.095 114.154C119.653 114.651 119.212 114.962 118.77 115.148C118.329 115.335 117.95 115.397 117.572 115.335C117.193 115.335 116.878 115.273 116.626 115.21L116.562 115.273L120.536 118.69L119.149 120.244L108.426 111.047L109.75 109.556L111.012 110.612L111.138 110.488C111.075 110.239 110.949 109.928 110.886 109.556C110.823 109.183 110.823 108.81 110.949 108.375C111.075 107.94 111.39 107.505 111.832 107.008ZM112.841 108.499C112.463 108.934 112.21 109.431 112.21 109.928C112.21 110.425 112.336 110.985 112.589 111.482C112.904 111.979 113.283 112.538 113.85 112.973C114.418 113.47 114.986 113.781 115.553 113.968C116.121 114.154 116.626 114.216 117.13 114.092C117.635 113.968 118.076 113.719 118.455 113.284C118.833 112.849 119.085 112.352 119.085 111.793C119.085 111.295 118.959 110.736 118.707 110.239C118.392 109.742 118.013 109.245 117.509 108.81C116.941 108.375 116.436 108.002 115.869 107.816C115.301 107.629 114.733 107.567 114.229 107.629C113.724 107.753 113.283 108.064 112.841 108.499Z" fill="#F58A07"/>
<path d="M102.182 115.957C103.002 115.397 103.822 115.024 104.705 114.962C105.588 114.9 106.408 115.024 107.228 115.459C108.048 115.894 108.805 116.516 109.435 117.386C110.066 118.256 110.508 119.126 110.697 120.058C110.886 120.928 110.76 121.798 110.445 122.606C110.129 123.414 109.561 124.097 108.741 124.719C107.921 125.278 107.102 125.651 106.218 125.713C105.335 125.775 104.515 125.589 103.695 125.216C102.876 124.781 102.119 124.159 101.488 123.289C100.857 122.419 100.416 121.549 100.289 120.617C100.163 119.685 100.226 118.877 100.542 118.069C100.794 117.199 101.362 116.516 102.182 115.957ZM103.191 117.324C102.686 117.697 102.371 118.132 102.182 118.691C101.992 119.25 102.056 119.747 102.245 120.306C102.434 120.866 102.686 121.425 103.128 121.984C103.506 122.544 104.011 122.979 104.515 123.289C105.02 123.6 105.525 123.786 106.092 123.849C106.66 123.911 107.165 123.724 107.669 123.289C108.174 122.916 108.552 122.481 108.678 121.922C108.805 121.363 108.805 120.866 108.615 120.244C108.426 119.685 108.174 119.126 107.732 118.566C107.354 118.007 106.849 117.572 106.345 117.262C105.84 116.951 105.335 116.764 104.768 116.764C104.263 116.764 103.759 116.951 103.191 117.324Z" fill="#F58A07"/>
<path d="M96.4412 126.956L93.8552 121.239L95.7474 120.369L100.163 129.939L98.3335 130.746L97.6397 129.193L97.5135 129.255C97.5135 129.876 97.3874 130.436 97.0089 130.933C96.6935 131.43 96.1259 131.865 95.432 132.176C94.7382 132.486 94.1075 132.611 93.4767 132.548C92.846 132.486 92.2783 132.238 91.7737 131.865C91.2691 131.492 90.8276 130.871 90.4491 130.063L87.6738 123.973L89.5661 123.103L92.2783 128.944C92.5937 129.628 93.0352 130.125 93.6029 130.311C94.1705 130.56 94.7382 130.498 95.369 130.249C95.8105 130.063 96.1259 129.814 96.3782 129.441C96.6305 129.131 96.7566 128.696 96.8197 128.261C96.8197 127.95 96.6935 127.515 96.4412 126.956Z" fill="#F58A07"/>
</g>
<defs>
<clipPath id="clip0">
<rect width="144" height="141" fill="white"/>
</clipPath>
</defs>
</svg>
